<?xml version="1.0" encoding="utf-8"?>
<!-- Generator: Adobe Illustrator 24.3.0, SVG Export Plug-In . SVG Version: 6.00 Build 0)  -->
<svg version="1.1" id="Layer_1" xmlns="http://www.w3.org/2000/svg" xmlns:xlink="http://www.w3.org/1999/xlink" x="0px" y="0px"
	 viewBox="0 0 128 128" style="enable-background:new 0 0 128 128;" xml:space="preserve">
<style type="text/css">
	.st0{fill:#FFFFFF;}
	.st1{fill:#71C2FF;}
	.st2{fill:#444B54;}
	.st3{fill:none;stroke:#444B54;stroke-width:6;stroke-linecap:round;stroke-linejoin:round;stroke-miterlimit:10;}
	.st4{fill:#71C2FF;stroke:#71C2FF;stroke-width:6;stroke-linecap:round;stroke-miterlimit:10;}
</style>
<g>
	<g>
		<g>
			<path class="st0" d="M84,124H44c-11.05,0-20-8.95-20-20V38h80v66C104,115.05,95.05,124,84,124z"/>
		</g>
	</g>
	<g>
		<g>
			<path class="st0" d="M104,38H24c-5.52,0-10-4.48-10-10v0c0-5.52,4.48-10,10-10h80c5.52,0,10,4.48,10,10v0
				C114,33.52,109.52,38,104,38z"/>
		</g>
	</g>
	<path class="st2" d="M117,28c0-7.17-5.83-13-13-13H24c-7.17,0-13,5.83-13,13s5.83,13,13,13h77v63c0,9.37-7.63,17-17,17H44
		c-9.37,0-17-7.63-17-17V52c0-1.66-1.34-3-3-3s-3,1.34-3,3v52c0,12.68,10.32,23,23,23h40c12.68,0,23-10.32,23-23V40.64
		C112.72,39.28,117,34.13,117,28z M104,35H24c-3.86,0-7-3.14-7-7s3.14-7,7-7h80c3.86,0,7,3.14,7,7S107.86,35,104,35z"/>
	<g>
		<g>
			<path class="st2" d="M79,7H49c-1.66,0-3-1.34-3-3s1.34-3,3-3h30c1.66,0,3,1.34,3,3S80.66,7,79,7z"/>
		</g>
	</g>
	<g>
		<g>
			<path class="st1" d="M50,107c-1.66,0-3-1.34-3-3V58c0-1.66,1.34-3,3-3s3,1.34,3,3v46C53,105.66,51.66,107,50,107z"/>
		</g>
	</g>
	<g>
		<g>
			<path class="st1" d="M78,107c-1.66,0-3-1.34-3-3V58c0-1.66,1.34-3,3-3s3,1.34,3,3v46C81,105.66,79.66,107,78,107z"/>
		</g>
	</g>
</g>
</svg>